G04 #@! TF.GenerationSoftware,KiCad,Pcbnew,(5.1.10)-1*
G04 #@! TF.CreationDate,2022-08-15T16:43:16+01:00*
G04 #@! TF.ProjectId,BMO Buttons,424d4f20-4275-4747-946f-6e732e6b6963,rev?*
G04 #@! TF.SameCoordinates,Original*
G04 #@! TF.FileFunction,Legend,Top*
G04 #@! TF.FilePolarity,Positive*
%FSLAX46Y46*%
G04 Gerber Fmt 4.6, Leading zero omitted, Abs format (unit mm)*
G04 Created by KiCad (PCBNEW (5.1.10)-1) date 2022-08-15 16:43:16*
%MOMM*%
%LPD*%
G01*
G04 APERTURE LIST*
%ADD10C,0.100000*%
%ADD11C,0.000180*%
%ADD12C,0.500000*%
%ADD13C,1.000000*%
%ADD14C,0.200000*%
%ADD15C,0.120000*%
%ADD16C,0.150000*%
G04 APERTURE END LIST*
D10*
G36*
X220419578Y-135071842D02*
G01*
X221919578Y-137932127D01*
X219767590Y-136432127D01*
X215392000Y-130810000D01*
X216330551Y-129817916D01*
X220419578Y-135071842D01*
G37*
X220419578Y-135071842D02*
X221919578Y-137932127D01*
X219767590Y-136432127D01*
X215392000Y-130810000D01*
X216330551Y-129817916D01*
X220419578Y-135071842D01*
G36*
X220419578Y-125495658D02*
G01*
X214194607Y-132075689D01*
X214194607Y-130111282D01*
X220419578Y-123531264D01*
X220419578Y-125495658D01*
G37*
X220419578Y-125495658D02*
X214194607Y-132075689D01*
X214194607Y-130111282D01*
X220419578Y-123531264D01*
X220419578Y-125495658D01*
G36*
X212852000Y-127254000D02*
G01*
X212844592Y-128587127D01*
X208409738Y-128587127D01*
X209296000Y-127254000D01*
X212844592Y-127237127D01*
X212852000Y-127254000D01*
G37*
X212852000Y-127254000D02*
X212844592Y-128587127D01*
X208409738Y-128587127D01*
X209296000Y-127254000D01*
X212844592Y-127237127D01*
X212852000Y-127254000D01*
G36*
X214194607Y-136432127D02*
G01*
X212852000Y-136398000D01*
X212844592Y-122512127D01*
X214194607Y-122512127D01*
X214194607Y-136432127D01*
G37*
X214194607Y-136432127D02*
X212852000Y-136398000D01*
X212844592Y-122512127D01*
X214194607Y-122512127D01*
X214194607Y-136432127D01*
G36*
X206469592Y-131824052D02*
G01*
X206469592Y-129198128D01*
X210477041Y-122512127D01*
X212050964Y-122512127D01*
X206469592Y-131824052D01*
G37*
X206469592Y-131824052D02*
X206469592Y-129198128D01*
X210477041Y-122512127D01*
X212050964Y-122512127D01*
X206469592Y-131824052D01*
G36*
X206469592Y-122512127D02*
G01*
X206469592Y-136432127D01*
X204969592Y-137932127D01*
X204969592Y-121012127D01*
X206469592Y-122512127D01*
G37*
X206469592Y-122512127D02*
X206469592Y-136432127D01*
X204969592Y-137932127D01*
X204969592Y-121012127D01*
X206469592Y-122512127D01*
G36*
X221919578Y-137932127D02*
G01*
X204969592Y-137932127D01*
X206469592Y-136432127D01*
X219767590Y-136432127D01*
X221919578Y-137932127D01*
G37*
X221919578Y-137932127D02*
X204969592Y-137932127D01*
X206469592Y-136432127D01*
X219767590Y-136432127D01*
X221919578Y-137932127D01*
G36*
X221919578Y-137932127D02*
G01*
X220419578Y-135071842D01*
X220419578Y-122512127D01*
X221919578Y-121012127D01*
X221919578Y-137932127D01*
G37*
X221919578Y-137932127D02*
X220419578Y-135071842D01*
X220419578Y-122512127D01*
X221919578Y-121012127D01*
X221919578Y-137932127D01*
G36*
X220419578Y-122512127D02*
G01*
X206469592Y-122512127D01*
X204969592Y-121012127D01*
X221919578Y-121012127D01*
X220419578Y-122512127D01*
G37*
X220419578Y-122512127D02*
X206469592Y-122512127D01*
X204969592Y-121012127D01*
X221919578Y-121012127D01*
X220419578Y-122512127D01*
D11*
X204969592Y-137932127D02*
X221919578Y-137932127D01*
X221919578Y-121012127D02*
X204969592Y-121012127D01*
X212844592Y-127237127D02*
X209218899Y-127237127D01*
X221919578Y-137932127D02*
X221919578Y-121012127D01*
X219767590Y-136432127D02*
X214194607Y-136432127D01*
X212844592Y-122512127D02*
X212844592Y-127237127D01*
X204969592Y-121012127D02*
X204969592Y-137932127D01*
X209218899Y-127237127D02*
X212050964Y-122512127D01*
X212050964Y-122512127D02*
X212844592Y-122512127D01*
X214194607Y-136432127D02*
X214194607Y-132075689D01*
X208409738Y-128587127D02*
X212844592Y-128587127D01*
X220419578Y-123531264D02*
X214194607Y-130111282D01*
X206469592Y-122512127D02*
X210477041Y-122512127D01*
X206469592Y-129198128D02*
X206469592Y-122512127D01*
X212844592Y-136432127D02*
X206469592Y-136432127D01*
X212844592Y-128587127D02*
X212844592Y-136432127D01*
X216330551Y-129817916D02*
X220419578Y-125495658D01*
X220419578Y-122512127D02*
X220419578Y-123531264D01*
X210477041Y-122512127D02*
X206469592Y-129198128D01*
X206469592Y-136432127D02*
X206469592Y-131824052D01*
X214194607Y-122512127D02*
X220419578Y-122512127D01*
X206469592Y-131824052D02*
X208409738Y-128587127D01*
X214194607Y-130111282D02*
X214194607Y-122512127D01*
X220419578Y-125495658D02*
X220419578Y-135071842D01*
X214194607Y-132075689D02*
X215392000Y-130810000D01*
X220419578Y-135071842D02*
X216330551Y-129817916D01*
X215392000Y-130810000D02*
X219767590Y-136432127D01*
D12*
X169950254Y-77710000D02*
X161290000Y-92710000D01*
X199390000Y-120410000D02*
G75*
G03*
X199390000Y-120410000I-15000000J0D01*
G01*
X108133145Y-91645401D02*
X95686135Y-91645401D01*
X108133145Y-102645419D02*
X108133145Y-91645401D01*
X95686135Y-102645419D02*
X108133145Y-102645419D01*
D13*
X59502353Y-70282341D02*
X228295260Y-70282341D01*
D12*
X72742778Y-91645401D02*
X72742778Y-102645419D01*
X178610509Y-92710000D02*
X169950254Y-77710000D01*
D13*
X228295260Y-144680922D02*
X59502353Y-144680922D01*
D12*
X84539567Y-114928735D02*
X95686135Y-114928735D01*
X84539567Y-79935005D02*
X84539567Y-91645401D01*
X211390000Y-93060000D02*
G75*
G03*
X211390000Y-93060000I-6000000J0D01*
G01*
X72742778Y-102645419D02*
X84539567Y-102645419D01*
X84539567Y-91645401D02*
X72742778Y-91645401D01*
X95686135Y-79935005D02*
X84539567Y-79935005D01*
X95686135Y-91645401D02*
X95686135Y-79935005D01*
D13*
X228295260Y-70282341D02*
X228295260Y-144680922D01*
D12*
X84539567Y-102645419D02*
X84539567Y-114928735D01*
X95686135Y-114928735D02*
X95686135Y-102645419D01*
D13*
X59502353Y-144680922D02*
X59502353Y-70282341D01*
D12*
X161290000Y-92710000D02*
X178610509Y-92710000D01*
D14*
X67886805Y-134626784D02*
X67886805Y-133285590D01*
X67796044Y-121328197D02*
X67887904Y-121134176D01*
X67887904Y-121134176D02*
X68023791Y-120969096D01*
X68023791Y-120969096D02*
X68194676Y-120836836D01*
X68194676Y-120836836D02*
X68391533Y-120741271D01*
X68391533Y-120741271D02*
X68605335Y-120686279D01*
X68605335Y-120686279D02*
X68827054Y-120675738D01*
X68827054Y-120675738D02*
X69047663Y-120713524D01*
X69047663Y-120713524D02*
X69258136Y-120803515D01*
X69258136Y-120803515D02*
X69449445Y-120949587D01*
X69449445Y-120949587D02*
X69612563Y-121155618D01*
X69612563Y-121155618D02*
X69701189Y-121328197D01*
X82517641Y-137879999D02*
X83124044Y-137879999D01*
X65906742Y-125441780D02*
X65906742Y-120287663D01*
X73380774Y-128366275D02*
X73331561Y-128582638D01*
X73331561Y-128582638D02*
X73199162Y-128751374D01*
X73199162Y-128751374D02*
X73006436Y-128849624D01*
X73006436Y-128849624D02*
X72881713Y-128865336D01*
X79357623Y-136313008D02*
X79338425Y-136566743D01*
X79338425Y-136566743D02*
X79282716Y-136808464D01*
X79282716Y-136808464D02*
X79193324Y-137035344D01*
X79193324Y-137035344D02*
X79073073Y-137244557D01*
X79073073Y-137244557D02*
X78924792Y-137433276D01*
X78924792Y-137433276D02*
X78751305Y-137598675D01*
X78751305Y-137598675D02*
X78555441Y-137737927D01*
X78555441Y-137737927D02*
X78340025Y-137848206D01*
X78340025Y-137848206D02*
X78107883Y-137926684D01*
X78107883Y-137926684D02*
X77861844Y-137970536D01*
X77861844Y-137970536D02*
X77691492Y-137979139D01*
X82517641Y-137593933D02*
X82517641Y-137879999D01*
X77064319Y-128366275D02*
G75*
G03*
X77064319Y-128366275I-594121J0D01*
G01*
X73216583Y-132026055D02*
X75027705Y-132026055D01*
X72881713Y-127867214D02*
X73098076Y-127916426D01*
X73098076Y-127916426D02*
X73266812Y-128048825D01*
X73266812Y-128048825D02*
X73365062Y-128241551D01*
X73365062Y-128241551D02*
X73380774Y-128366274D01*
X66037448Y-128366275D02*
X66037448Y-128366274D01*
X67583584Y-127118622D02*
X67328217Y-127099301D01*
X67328217Y-127099301D02*
X67084942Y-127043234D01*
X67084942Y-127043234D02*
X66856603Y-126953267D01*
X66856603Y-126953267D02*
X66646045Y-126832243D01*
X66646045Y-126832243D02*
X66456113Y-126683009D01*
X66456113Y-126683009D02*
X66289651Y-126508407D01*
X66289651Y-126508407D02*
X66149504Y-126311283D01*
X66149504Y-126311283D02*
X66038516Y-126094482D01*
X66038516Y-126094482D02*
X65959533Y-125860849D01*
X65959533Y-125860849D02*
X65915399Y-125613227D01*
X65915399Y-125613227D02*
X65906742Y-125441780D01*
X69152618Y-134626784D02*
X67886805Y-134626784D01*
X77420791Y-132180526D02*
G75*
G03*
X77420791Y-132180526I-487179J0D01*
G01*
X66536509Y-128865336D02*
X66320145Y-128816123D01*
X66320145Y-128816123D02*
X66151409Y-128683724D01*
X66151409Y-128683724D02*
X66053159Y-128490998D01*
X66053159Y-128490998D02*
X66037448Y-128366275D01*
X69697228Y-122397614D02*
X69746799Y-122694209D01*
X69746799Y-122694209D02*
X69878806Y-122951259D01*
X69878806Y-122951259D02*
X70081549Y-123168763D01*
X70081549Y-123168763D02*
X70343333Y-123346720D01*
X70343333Y-123346720D02*
X70652461Y-123485132D01*
X70652461Y-123485132D02*
X70997237Y-123583997D01*
X70997237Y-123583997D02*
X71365963Y-123643316D01*
X71365963Y-123643316D02*
X71746942Y-123663089D01*
X71746942Y-123663089D02*
X72128479Y-123643316D01*
X72128479Y-123643316D02*
X72498876Y-123583997D01*
X72498876Y-123583997D02*
X72846436Y-123485132D01*
X72846436Y-123485132D02*
X73159463Y-123346720D01*
X73159463Y-123346720D02*
X73426260Y-123168763D01*
X73426260Y-123168763D02*
X73635131Y-122951259D01*
X73635131Y-122951259D02*
X73774378Y-122694209D01*
X73774378Y-122694209D02*
X73832305Y-122397614D01*
X66265808Y-137979139D02*
X66012072Y-137959941D01*
X66012072Y-137959941D02*
X65770351Y-137904233D01*
X65770351Y-137904233D02*
X65543471Y-137814840D01*
X65543471Y-137814840D02*
X65334258Y-137694590D01*
X65334258Y-137694590D02*
X65145539Y-137546308D01*
X65145539Y-137546308D02*
X64980140Y-137372822D01*
X64980140Y-137372822D02*
X64840888Y-137176957D01*
X64840888Y-137176957D02*
X64730609Y-136961541D01*
X64730609Y-136961541D02*
X64652131Y-136729400D01*
X64652131Y-136729400D02*
X64608279Y-136483360D01*
X64608279Y-136483360D02*
X64599677Y-136313008D01*
X66441450Y-133285590D02*
X66441450Y-132144879D01*
X75027705Y-132026055D02*
X74122144Y-130457578D01*
X64599677Y-136313008D02*
X64599677Y-118732240D01*
X83124044Y-137879999D02*
X83124044Y-136089714D01*
X81167515Y-136378454D02*
X81167515Y-137593933D01*
X66441450Y-132144879D02*
X67850400Y-132144879D01*
X67886805Y-133285590D02*
X66441450Y-133285590D01*
X69152618Y-133285590D02*
X69152618Y-134626784D01*
X70544419Y-132144879D02*
X70552762Y-133285590D01*
X64599677Y-118732240D02*
X64618874Y-118478504D01*
X64618874Y-118478504D02*
X64674583Y-118236783D01*
X64674583Y-118236783D02*
X64763975Y-118009903D01*
X64763975Y-118009903D02*
X64884226Y-117800690D01*
X64884226Y-117800690D02*
X65032507Y-117611971D01*
X65032507Y-117611971D02*
X65205994Y-117446572D01*
X65205994Y-117446572D02*
X65401858Y-117307320D01*
X65401858Y-117307320D02*
X65617274Y-117197041D01*
X65617274Y-117197041D02*
X65849416Y-117118563D01*
X65849416Y-117118563D02*
X66095455Y-117074711D01*
X66095455Y-117074711D02*
X66265808Y-117066109D01*
X69152618Y-132144879D02*
X70544419Y-132144879D01*
X69152618Y-130694973D02*
X69152618Y-132144879D01*
X66265808Y-117066109D02*
X77691492Y-117066109D01*
X82517641Y-136089714D02*
X82517641Y-136378454D01*
X67850400Y-130694973D02*
X69152618Y-130694973D01*
X74122144Y-130457578D02*
X73216583Y-132026055D01*
X67850400Y-132144879D02*
X67850400Y-130694973D01*
X77691492Y-117066109D02*
X77945227Y-117085306D01*
X77945227Y-117085306D02*
X78186948Y-117141014D01*
X78186948Y-117141014D02*
X78413828Y-117230407D01*
X78413828Y-117230407D02*
X78623041Y-117350657D01*
X78623041Y-117350657D02*
X78811760Y-117498939D01*
X78811760Y-117498939D02*
X78977159Y-117672425D01*
X78977159Y-117672425D02*
X79116411Y-117868290D01*
X79116411Y-117868290D02*
X79226690Y-118083706D01*
X79226690Y-118083706D02*
X79305168Y-118315847D01*
X79305168Y-118315847D02*
X79349020Y-118561887D01*
X79349020Y-118561887D02*
X79357623Y-118732240D01*
X81167515Y-137593933D02*
X82517641Y-137593933D01*
X73380774Y-128366274D02*
X73380774Y-128366275D01*
X73832305Y-121328197D02*
X73924165Y-121134176D01*
X73924165Y-121134176D02*
X74060052Y-120969096D01*
X74060052Y-120969096D02*
X74230937Y-120836836D01*
X74230937Y-120836836D02*
X74427794Y-120741271D01*
X74427794Y-120741271D02*
X74641596Y-120686279D01*
X74641596Y-120686279D02*
X74863315Y-120675738D01*
X74863315Y-120675738D02*
X75083924Y-120713524D01*
X75083924Y-120713524D02*
X75294397Y-120803515D01*
X75294397Y-120803515D02*
X75485706Y-120949587D01*
X75485706Y-120949587D02*
X75648824Y-121155618D01*
X75648824Y-121155618D02*
X75737450Y-121328197D01*
X82517641Y-136378454D02*
X81167515Y-136378454D01*
X72881713Y-128865336D02*
X66536509Y-128865336D01*
X76707847Y-134545125D02*
G75*
G03*
X76707847Y-134545125I-1687302J0D01*
G01*
X65906742Y-120287663D02*
X65926062Y-120032296D01*
X65926062Y-120032296D02*
X65982129Y-119789021D01*
X65982129Y-119789021D02*
X66072096Y-119560682D01*
X66072096Y-119560682D02*
X66193120Y-119350124D01*
X66193120Y-119350124D02*
X66342355Y-119160192D01*
X66342355Y-119160192D02*
X66516956Y-118993730D01*
X66516956Y-118993730D02*
X66714080Y-118853583D01*
X66714080Y-118853583D02*
X66930881Y-118742595D01*
X66930881Y-118742595D02*
X67164515Y-118663612D01*
X67164515Y-118663612D02*
X67412136Y-118619478D01*
X67412136Y-118619478D02*
X67583584Y-118610821D01*
X67583584Y-118610821D02*
X76231127Y-118610821D01*
X77907969Y-120287663D02*
X77907969Y-125441780D01*
X76231127Y-118610821D02*
X76486493Y-118630141D01*
X76486493Y-118630141D02*
X76729768Y-118686208D01*
X76729768Y-118686208D02*
X76958107Y-118776175D01*
X76958107Y-118776175D02*
X77168665Y-118897199D01*
X77168665Y-118897199D02*
X77358597Y-119046434D01*
X77358597Y-119046434D02*
X77525060Y-119221035D01*
X77525060Y-119221035D02*
X77665207Y-119418159D01*
X77665207Y-119418159D02*
X77776194Y-119634960D01*
X77776194Y-119634960D02*
X77855177Y-119868594D01*
X77855177Y-119868594D02*
X77899311Y-120116215D01*
X77899311Y-120116215D02*
X77907969Y-120287663D01*
X70552762Y-133285590D02*
X69152618Y-133285590D01*
X66536509Y-127867214D02*
X72881713Y-127867214D01*
X79357623Y-118732240D02*
X79357623Y-136313008D01*
X66037448Y-128366274D02*
X66086660Y-128149910D01*
X66086660Y-128149910D02*
X66219059Y-127981175D01*
X66219059Y-127981175D02*
X66411785Y-127882925D01*
X66411785Y-127882925D02*
X66536509Y-127867214D01*
X77907969Y-125441780D02*
X77888648Y-125697146D01*
X77888648Y-125697146D02*
X77832581Y-125940421D01*
X77832581Y-125940421D02*
X77742614Y-126168760D01*
X77742614Y-126168760D02*
X77621590Y-126379318D01*
X77621590Y-126379318D02*
X77472356Y-126569250D01*
X77472356Y-126569250D02*
X77297754Y-126735713D01*
X77297754Y-126735713D02*
X77100630Y-126875860D01*
X77100630Y-126875860D02*
X76883829Y-126986847D01*
X76883829Y-126986847D02*
X76650196Y-127065830D01*
X76650196Y-127065830D02*
X76402574Y-127109964D01*
X76402574Y-127109964D02*
X76231127Y-127118622D01*
X77691492Y-137979139D02*
X66265808Y-137979139D01*
X76231127Y-127118622D02*
X67583584Y-127118622D01*
X83124044Y-132854514D02*
X81167515Y-132854514D01*
X83124044Y-134069993D02*
X83124044Y-132854514D01*
X81773917Y-132721567D02*
X81961406Y-132643286D01*
X81961406Y-132643286D02*
X82030818Y-132504040D01*
X82517641Y-126526783D02*
X82517641Y-126812849D01*
X82823152Y-130752157D02*
X83021170Y-130706118D01*
X83021170Y-130706118D02*
X83119648Y-130525321D01*
X83119648Y-130525321D02*
X83124044Y-130451264D01*
X82182479Y-129974406D02*
X82182479Y-129681048D01*
X82573785Y-127698999D02*
X82573785Y-127992600D01*
X81167515Y-125311304D02*
X81167515Y-126526783D01*
X81167515Y-135240265D02*
X81167515Y-135969163D01*
X81580938Y-135240265D02*
X81167515Y-135240265D01*
X81580938Y-134946907D02*
X81580938Y-135240265D01*
X81167515Y-134946907D02*
X81580938Y-134946907D01*
X81167515Y-134215578D02*
X81167515Y-134946907D01*
X83124044Y-134215578D02*
X81167515Y-134215578D01*
X81167515Y-134069993D02*
X83124044Y-134069993D01*
X81725065Y-127698999D02*
X82573785Y-127698999D01*
X81167515Y-131943817D02*
X81167515Y-132721567D01*
X81167515Y-132721567D02*
X81773917Y-132721567D01*
X83124044Y-134895381D02*
X83124044Y-134215578D01*
X82182479Y-129681048D02*
X82517641Y-129681048D01*
X82573785Y-127992600D02*
X81725065Y-127992600D01*
X82835547Y-135240265D02*
X83124044Y-134895381D01*
X81167515Y-132854514D02*
X81167515Y-134069993D01*
X82823152Y-132721567D02*
X83018977Y-132668311D01*
X83018977Y-132668311D02*
X83119438Y-132487684D01*
X83119438Y-132487684D02*
X83124044Y-132420675D01*
X82030818Y-132504040D02*
X82035679Y-132504040D01*
X82622638Y-131943817D02*
X82312023Y-131943817D01*
X82336571Y-132721567D02*
X82823152Y-132721567D01*
X83124044Y-125022564D02*
X82517641Y-125022564D01*
X82312023Y-131943817D02*
X82312023Y-131650459D01*
X82035679Y-132504040D02*
X82145237Y-132674148D01*
X82145237Y-132674148D02*
X82336571Y-132721567D01*
X81568542Y-131943817D02*
X81167515Y-131943817D01*
X81167515Y-130872708D02*
X81167515Y-131650459D01*
X81167515Y-129681048D02*
X81620068Y-129681048D01*
X82517641Y-129681048D02*
X82517641Y-129974406D01*
X83124044Y-128469458D02*
X83124044Y-127222140D01*
X81167515Y-126526783D02*
X82517641Y-126526783D01*
X82312023Y-131650459D02*
X82622638Y-131650459D01*
X83124044Y-128903297D02*
X81167515Y-128903297D01*
X82517641Y-129974406D02*
X82182479Y-129974406D01*
X82823152Y-126921491D02*
X81468407Y-126921491D01*
X83124044Y-126812849D02*
X83124044Y-125022564D01*
X83124044Y-127222140D02*
X83064854Y-127019612D01*
X83064854Y-127019612D02*
X82875782Y-126924305D01*
X82875782Y-126924305D02*
X82823152Y-126921491D01*
X83124044Y-130872708D02*
X81167515Y-130872708D01*
X82622638Y-131650459D02*
X82622638Y-131943817D01*
X81167515Y-128903297D02*
X81167515Y-129681048D01*
X81468407Y-126921491D02*
X81262752Y-126971945D01*
X81262752Y-126971945D02*
X81170161Y-127163339D01*
X81170161Y-127163339D02*
X81167515Y-127222140D01*
X81620068Y-130446403D02*
X81675450Y-130646176D01*
X81675450Y-130646176D02*
X81855882Y-130747552D01*
X81855882Y-130747552D02*
X81920718Y-130752157D01*
X81167515Y-128469458D02*
X81229058Y-128673093D01*
X81229058Y-128673093D02*
X81417459Y-128767587D01*
X81417459Y-128767587D02*
X81468407Y-128770350D01*
X82823152Y-128770350D02*
X83020464Y-128724170D01*
X83020464Y-128724170D02*
X83120645Y-128535769D01*
X83120645Y-128535769D02*
X83124044Y-128469458D01*
X82517641Y-125311304D02*
X81167515Y-125311304D01*
X81725065Y-127992600D02*
X81725065Y-127698999D01*
X81568542Y-131650459D02*
X81568542Y-131943817D01*
X81620068Y-129681048D02*
X81620068Y-130446403D01*
X81167515Y-127222140D02*
X81167515Y-128469458D01*
X82517641Y-126812849D02*
X83124044Y-126812849D01*
X81920718Y-130752157D02*
X82823152Y-130752157D01*
X81468407Y-128770350D02*
X82823152Y-128770350D01*
X83124044Y-136089714D02*
X82517641Y-136089714D01*
X83124044Y-135240265D02*
X82835547Y-135240265D01*
X81167515Y-131650459D02*
X81568542Y-131650459D01*
X83124044Y-135969163D02*
X83124044Y-135240265D01*
X83124044Y-132420675D02*
X83124044Y-130872708D01*
X83124044Y-130451264D02*
X83124044Y-128903297D01*
X81167515Y-135969163D02*
X83124044Y-135969163D01*
X82309593Y-118232800D02*
X82309593Y-117944303D01*
X81526981Y-119921248D02*
X81287337Y-120217037D01*
X81167515Y-119921248D02*
X81526981Y-119921248D01*
X81167515Y-122981211D02*
X81229058Y-123184847D01*
X81229058Y-123184847D02*
X81417459Y-123279341D01*
X81417459Y-123279341D02*
X81468407Y-123282104D01*
X81468407Y-119008120D02*
X81842456Y-119008120D01*
X81167515Y-120515498D02*
X81167515Y-121300541D01*
X81167515Y-119141067D02*
X81167515Y-119921248D01*
X82126335Y-118770906D02*
X82131196Y-118770906D01*
X81842456Y-119008120D02*
X82036620Y-118934446D01*
X82036620Y-118934446D02*
X82126335Y-118770906D01*
X82622638Y-118232800D02*
X82309593Y-118232800D01*
X81661629Y-118232800D02*
X81661629Y-117944303D01*
X82517641Y-125022564D02*
X82517641Y-125311304D01*
X83124044Y-123703304D02*
X83064854Y-123511980D01*
X83064854Y-123511980D02*
X82892254Y-123408754D01*
X82892254Y-123408754D02*
X82823152Y-123402655D01*
X82517641Y-124605738D02*
X82517641Y-124926317D01*
X83124044Y-119141067D02*
X81167515Y-119141067D01*
X82749751Y-120214606D02*
X83124044Y-119913957D01*
X81773917Y-124926317D02*
X81773917Y-124605738D01*
X81167515Y-124926317D02*
X81773917Y-124926317D01*
X81468407Y-123282104D02*
X82823152Y-123282104D01*
X82573785Y-122504353D02*
X81715343Y-122504353D01*
X81468407Y-121433244D02*
X81262752Y-121483698D01*
X81262752Y-121483698D02*
X81170161Y-121675093D01*
X81170161Y-121675093D02*
X81167515Y-121733894D01*
X81661629Y-117944303D02*
X81969813Y-117944303D01*
X82823152Y-121433244D02*
X81468407Y-121433244D01*
X82131196Y-118770906D02*
X82235757Y-118950338D01*
X82235757Y-118950338D02*
X82402680Y-119008120D01*
X81969813Y-117944303D02*
X81969813Y-118232800D01*
X83124044Y-122981211D02*
X83124044Y-121733894D01*
X82622638Y-117944303D02*
X82622638Y-118232800D01*
X82823152Y-123402655D02*
X81468407Y-123402655D01*
X82309593Y-117944303D02*
X82622638Y-117944303D01*
X81715343Y-122504353D02*
X81715343Y-122210752D01*
X83124044Y-120520359D02*
X82749751Y-120214606D01*
X81529412Y-120515498D02*
X81167515Y-120515498D01*
X83124044Y-119913957D02*
X83124044Y-119141067D01*
X83124044Y-118704798D02*
X83124044Y-117164122D01*
X83124044Y-124926317D02*
X83124044Y-123703304D01*
X81773917Y-124605738D02*
X82517641Y-124605738D01*
X82823152Y-119008120D02*
X83022214Y-118958274D01*
X83022214Y-118958274D02*
X83119747Y-118776098D01*
X83119747Y-118776098D02*
X83124044Y-118704798D01*
X83124044Y-121300541D02*
X83124044Y-120520359D01*
X82517641Y-124926317D02*
X83124044Y-124926317D01*
X81468407Y-123402655D02*
X81275714Y-123463753D01*
X81275714Y-123463753D02*
X81172419Y-123644050D01*
X81172419Y-123644050D02*
X81167515Y-123703304D01*
X81167515Y-121300541D02*
X83124044Y-121300541D01*
X81167515Y-118704798D02*
X81227488Y-118906393D01*
X81227488Y-118906393D02*
X81416337Y-119005123D01*
X81416337Y-119005123D02*
X81468407Y-119008120D01*
X81167515Y-117164122D02*
X81167515Y-118704798D01*
X83124044Y-121733894D02*
X83064854Y-121531365D01*
X83064854Y-121531365D02*
X82875782Y-121436058D01*
X82875782Y-121436058D02*
X82823152Y-121433244D01*
X81715343Y-122210752D02*
X82573785Y-122210752D01*
X83124044Y-117164122D02*
X81167515Y-117164122D01*
X81969813Y-118232800D02*
X81661629Y-118232800D01*
X81167515Y-123703304D02*
X81167515Y-124926317D01*
X81167515Y-121733894D02*
X81167515Y-122981211D01*
X82823152Y-123282104D02*
X83020464Y-123235924D01*
X83020464Y-123235924D02*
X83120645Y-123047522D01*
X83120645Y-123047522D02*
X83124044Y-122981211D01*
X82573785Y-122210752D02*
X82573785Y-122504353D01*
X81287337Y-120217037D02*
X81529412Y-120515498D01*
X82402680Y-119008120D02*
X82823152Y-119008120D01*
D15*
X144008000Y-109362000D02*
X144008000Y-108882000D01*
X133868000Y-109362000D02*
X144008000Y-109362000D01*
X133868000Y-108882000D02*
X133868000Y-109362000D01*
X144008000Y-105522000D02*
X144008000Y-106002000D01*
X133868000Y-105522000D02*
X144008000Y-105522000D01*
X133868000Y-106002000D02*
X133868000Y-105522000D01*
X178154000Y-114206000D02*
X190454000Y-114206000D01*
X190454000Y-118786000D02*
X190454000Y-121926000D01*
X190454000Y-126506000D02*
X178154000Y-126506000D01*
X178154000Y-116926000D02*
X178154000Y-114206000D01*
X188983050Y-120396000D02*
G75*
G03*
X188983050Y-120396000I-4579050J0D01*
G01*
X178154000Y-126506000D02*
X178154000Y-123786000D01*
X178154000Y-121926000D02*
X178154000Y-118786000D01*
X190454000Y-123786000D02*
X190454000Y-126506000D01*
X190454000Y-114206000D02*
X190454000Y-116926000D01*
X211536000Y-86774000D02*
X211536000Y-89494000D01*
X211536000Y-96354000D02*
X211536000Y-99074000D01*
X199236000Y-94494000D02*
X199236000Y-91354000D01*
X199236000Y-99074000D02*
X199236000Y-96354000D01*
X210065050Y-92964000D02*
G75*
G03*
X210065050Y-92964000I-4579050J0D01*
G01*
X199236000Y-89494000D02*
X199236000Y-86774000D01*
X211536000Y-99074000D02*
X199236000Y-99074000D01*
X211536000Y-91354000D02*
X211536000Y-94494000D01*
X199236000Y-86774000D02*
X211536000Y-86774000D01*
X175976000Y-81440000D02*
X175976000Y-84160000D01*
X175976000Y-91020000D02*
X175976000Y-93740000D01*
X163676000Y-89160000D02*
X163676000Y-86020000D01*
X163676000Y-93740000D02*
X163676000Y-91020000D01*
X174505050Y-87630000D02*
G75*
G03*
X174505050Y-87630000I-4579050J0D01*
G01*
X163676000Y-84160000D02*
X163676000Y-81440000D01*
X175976000Y-93740000D02*
X163676000Y-93740000D01*
X175976000Y-86020000D02*
X175976000Y-89160000D01*
X163676000Y-81440000D02*
X175976000Y-81440000D01*
X82188000Y-97742000D02*
X82188000Y-96242000D01*
X80938000Y-93742000D02*
X76438000Y-93742000D01*
X75188000Y-96242000D02*
X75188000Y-97742000D01*
X76438000Y-100242000D02*
X80938000Y-100242000D01*
X93618000Y-109934000D02*
X93618000Y-108434000D01*
X92368000Y-105934000D02*
X87868000Y-105934000D01*
X86618000Y-108434000D02*
X86618000Y-109934000D01*
X87868000Y-112434000D02*
X92368000Y-112434000D01*
X105556000Y-97742000D02*
X105556000Y-96242000D01*
X104306000Y-93742000D02*
X99806000Y-93742000D01*
X98556000Y-96242000D02*
X98556000Y-97742000D01*
X99806000Y-100242000D02*
X104306000Y-100242000D01*
X93722000Y-85804000D02*
X93722000Y-84304000D01*
X92472000Y-81804000D02*
X87972000Y-81804000D01*
X86722000Y-84304000D02*
X86722000Y-85804000D01*
X87972000Y-88304000D02*
X92472000Y-88304000D01*
X146802000Y-113680000D02*
X146802000Y-113200000D01*
X136662000Y-113680000D02*
X146802000Y-113680000D01*
X136662000Y-113200000D02*
X136662000Y-113680000D01*
X146802000Y-109840000D02*
X146802000Y-110320000D01*
X136662000Y-109840000D02*
X146802000Y-109840000D01*
X136662000Y-110320000D02*
X136662000Y-109840000D01*
X141722000Y-105044000D02*
X141722000Y-104564000D01*
X131582000Y-105044000D02*
X141722000Y-105044000D01*
X131582000Y-104564000D02*
X131582000Y-105044000D01*
X141722000Y-101204000D02*
X141722000Y-101684000D01*
X131582000Y-101204000D02*
X141722000Y-101204000D01*
X131582000Y-101684000D02*
X131582000Y-101204000D01*
X138928000Y-100726000D02*
X138928000Y-100246000D01*
X128788000Y-100726000D02*
X138928000Y-100726000D01*
X128788000Y-100246000D02*
X128788000Y-100726000D01*
X138928000Y-96886000D02*
X138928000Y-97366000D01*
X128788000Y-96886000D02*
X138928000Y-96886000D01*
X128788000Y-97366000D02*
X128788000Y-96886000D01*
X136134000Y-96408000D02*
X136134000Y-95928000D01*
X125994000Y-96408000D02*
X136134000Y-96408000D01*
X125994000Y-95928000D02*
X125994000Y-96408000D01*
X136134000Y-92568000D02*
X136134000Y-93048000D01*
X125994000Y-92568000D02*
X136134000Y-92568000D01*
X125994000Y-93048000D02*
X125994000Y-92568000D01*
X133340000Y-92090000D02*
X133340000Y-91610000D01*
X123200000Y-92090000D02*
X133340000Y-92090000D01*
X123200000Y-91610000D02*
X123200000Y-92090000D01*
X133340000Y-88250000D02*
X133340000Y-88730000D01*
X123200000Y-88250000D02*
X133340000Y-88250000D01*
X123200000Y-88730000D02*
X123200000Y-88250000D01*
X130800000Y-87772000D02*
X130800000Y-87292000D01*
X120660000Y-87772000D02*
X130800000Y-87772000D01*
X120660000Y-87292000D02*
X120660000Y-87772000D01*
X130800000Y-83932000D02*
X130800000Y-84412000D01*
X120660000Y-83932000D02*
X130800000Y-83932000D01*
X120660000Y-84412000D02*
X120660000Y-83932000D01*
X125670000Y-74930000D02*
X125670000Y-73600000D01*
X125670000Y-73600000D02*
X127000000Y-73600000D01*
X128270000Y-73600000D02*
X148650000Y-73600000D01*
X148650000Y-76260000D02*
X148650000Y-73600000D01*
X128270000Y-76260000D02*
X148650000Y-76260000D01*
X128270000Y-76260000D02*
X128270000Y-73600000D01*
D16*
X148280380Y-107608666D02*
X147804190Y-107942000D01*
X148280380Y-108180095D02*
X147280380Y-108180095D01*
X147280380Y-107799142D01*
X147328000Y-107703904D01*
X147375619Y-107656285D01*
X147470857Y-107608666D01*
X147613714Y-107608666D01*
X147708952Y-107656285D01*
X147756571Y-107703904D01*
X147804190Y-107799142D01*
X147804190Y-108180095D01*
X147280380Y-106751523D02*
X147280380Y-106942000D01*
X147328000Y-107037238D01*
X147375619Y-107084857D01*
X147518476Y-107180095D01*
X147708952Y-107227714D01*
X148089904Y-107227714D01*
X148185142Y-107180095D01*
X148232761Y-107132476D01*
X148280380Y-107037238D01*
X148280380Y-106846761D01*
X148232761Y-106751523D01*
X148185142Y-106703904D01*
X148089904Y-106656285D01*
X147851809Y-106656285D01*
X147756571Y-106703904D01*
X147708952Y-106751523D01*
X147661333Y-106846761D01*
X147661333Y-107037238D01*
X147708952Y-107132476D01*
X147756571Y-107180095D01*
X147851809Y-107227714D01*
X182166666Y-129428571D02*
X182309523Y-129476190D01*
X182357142Y-129523809D01*
X182404761Y-129619047D01*
X182404761Y-129761904D01*
X182357142Y-129857142D01*
X182309523Y-129904761D01*
X182214285Y-129952380D01*
X181833333Y-129952380D01*
X181833333Y-128952380D01*
X182166666Y-128952380D01*
X182261904Y-129000000D01*
X182309523Y-129047619D01*
X182357142Y-129142857D01*
X182357142Y-129238095D01*
X182309523Y-129333333D01*
X182261904Y-129380952D01*
X182166666Y-129428571D01*
X181833333Y-129428571D01*
X183261904Y-129285714D02*
X183261904Y-129952380D01*
X182833333Y-129285714D02*
X182833333Y-129809523D01*
X182880952Y-129904761D01*
X182976190Y-129952380D01*
X183119047Y-129952380D01*
X183214285Y-129904761D01*
X183261904Y-129857142D01*
X183595238Y-129285714D02*
X183976190Y-129285714D01*
X183738095Y-128952380D02*
X183738095Y-129809523D01*
X183785714Y-129904761D01*
X183880952Y-129952380D01*
X183976190Y-129952380D01*
X184166666Y-129285714D02*
X184547619Y-129285714D01*
X184309523Y-128952380D02*
X184309523Y-129809523D01*
X184357142Y-129904761D01*
X184452380Y-129952380D01*
X184547619Y-129952380D01*
X185023809Y-129952380D02*
X184928571Y-129904761D01*
X184880952Y-129857142D01*
X184833333Y-129761904D01*
X184833333Y-129476190D01*
X184880952Y-129380952D01*
X184928571Y-129333333D01*
X185023809Y-129285714D01*
X185166666Y-129285714D01*
X185261904Y-129333333D01*
X185309523Y-129380952D01*
X185357142Y-129476190D01*
X185357142Y-129761904D01*
X185309523Y-129857142D01*
X185261904Y-129904761D01*
X185166666Y-129952380D01*
X185023809Y-129952380D01*
X185785714Y-129285714D02*
X185785714Y-129952380D01*
X185785714Y-129380952D02*
X185833333Y-129333333D01*
X185928571Y-129285714D01*
X186071428Y-129285714D01*
X186166666Y-129333333D01*
X186214285Y-129428571D01*
X186214285Y-129952380D01*
X186595238Y-128952380D02*
X187261904Y-128952380D01*
X186833333Y-129952380D01*
X203166666Y-102428571D02*
X203309523Y-102476190D01*
X203357142Y-102523809D01*
X203404761Y-102619047D01*
X203404761Y-102761904D01*
X203357142Y-102857142D01*
X203309523Y-102904761D01*
X203214285Y-102952380D01*
X202833333Y-102952380D01*
X202833333Y-101952380D01*
X203166666Y-101952380D01*
X203261904Y-102000000D01*
X203309523Y-102047619D01*
X203357142Y-102142857D01*
X203357142Y-102238095D01*
X203309523Y-102333333D01*
X203261904Y-102380952D01*
X203166666Y-102428571D01*
X202833333Y-102428571D01*
X204261904Y-102285714D02*
X204261904Y-102952380D01*
X203833333Y-102285714D02*
X203833333Y-102809523D01*
X203880952Y-102904761D01*
X203976190Y-102952380D01*
X204119047Y-102952380D01*
X204214285Y-102904761D01*
X204261904Y-102857142D01*
X204595238Y-102285714D02*
X204976190Y-102285714D01*
X204738095Y-101952380D02*
X204738095Y-102809523D01*
X204785714Y-102904761D01*
X204880952Y-102952380D01*
X204976190Y-102952380D01*
X205166666Y-102285714D02*
X205547619Y-102285714D01*
X205309523Y-101952380D02*
X205309523Y-102809523D01*
X205357142Y-102904761D01*
X205452380Y-102952380D01*
X205547619Y-102952380D01*
X206023809Y-102952380D02*
X205928571Y-102904761D01*
X205880952Y-102857142D01*
X205833333Y-102761904D01*
X205833333Y-102476190D01*
X205880952Y-102380952D01*
X205928571Y-102333333D01*
X206023809Y-102285714D01*
X206166666Y-102285714D01*
X206261904Y-102333333D01*
X206309523Y-102380952D01*
X206357142Y-102476190D01*
X206357142Y-102761904D01*
X206309523Y-102857142D01*
X206261904Y-102904761D01*
X206166666Y-102952380D01*
X206023809Y-102952380D01*
X206785714Y-102285714D02*
X206785714Y-102952380D01*
X206785714Y-102380952D02*
X206833333Y-102333333D01*
X206928571Y-102285714D01*
X207071428Y-102285714D01*
X207166666Y-102333333D01*
X207214285Y-102428571D01*
X207214285Y-102952380D01*
X208119047Y-101952380D02*
X207928571Y-101952380D01*
X207833333Y-102000000D01*
X207785714Y-102047619D01*
X207690476Y-102190476D01*
X207642857Y-102380952D01*
X207642857Y-102761904D01*
X207690476Y-102857142D01*
X207738095Y-102904761D01*
X207833333Y-102952380D01*
X208023809Y-102952380D01*
X208119047Y-102904761D01*
X208166666Y-102857142D01*
X208214285Y-102761904D01*
X208214285Y-102523809D01*
X208166666Y-102428571D01*
X208119047Y-102380952D01*
X208023809Y-102333333D01*
X207833333Y-102333333D01*
X207738095Y-102380952D01*
X207690476Y-102428571D01*
X207642857Y-102523809D01*
X167666666Y-97428571D02*
X167809523Y-97476190D01*
X167857142Y-97523809D01*
X167904761Y-97619047D01*
X167904761Y-97761904D01*
X167857142Y-97857142D01*
X167809523Y-97904761D01*
X167714285Y-97952380D01*
X167333333Y-97952380D01*
X167333333Y-96952380D01*
X167666666Y-96952380D01*
X167761904Y-97000000D01*
X167809523Y-97047619D01*
X167857142Y-97142857D01*
X167857142Y-97238095D01*
X167809523Y-97333333D01*
X167761904Y-97380952D01*
X167666666Y-97428571D01*
X167333333Y-97428571D01*
X168761904Y-97285714D02*
X168761904Y-97952380D01*
X168333333Y-97285714D02*
X168333333Y-97809523D01*
X168380952Y-97904761D01*
X168476190Y-97952380D01*
X168619047Y-97952380D01*
X168714285Y-97904761D01*
X168761904Y-97857142D01*
X169095238Y-97285714D02*
X169476190Y-97285714D01*
X169238095Y-96952380D02*
X169238095Y-97809523D01*
X169285714Y-97904761D01*
X169380952Y-97952380D01*
X169476190Y-97952380D01*
X169666666Y-97285714D02*
X170047619Y-97285714D01*
X169809523Y-96952380D02*
X169809523Y-97809523D01*
X169857142Y-97904761D01*
X169952380Y-97952380D01*
X170047619Y-97952380D01*
X170523809Y-97952380D02*
X170428571Y-97904761D01*
X170380952Y-97857142D01*
X170333333Y-97761904D01*
X170333333Y-97476190D01*
X170380952Y-97380952D01*
X170428571Y-97333333D01*
X170523809Y-97285714D01*
X170666666Y-97285714D01*
X170761904Y-97333333D01*
X170809523Y-97380952D01*
X170857142Y-97476190D01*
X170857142Y-97761904D01*
X170809523Y-97857142D01*
X170761904Y-97904761D01*
X170666666Y-97952380D01*
X170523809Y-97952380D01*
X171285714Y-97285714D02*
X171285714Y-97952380D01*
X171285714Y-97380952D02*
X171333333Y-97333333D01*
X171428571Y-97285714D01*
X171571428Y-97285714D01*
X171666666Y-97333333D01*
X171714285Y-97428571D01*
X171714285Y-97952380D01*
X172666666Y-96952380D02*
X172190476Y-96952380D01*
X172142857Y-97428571D01*
X172190476Y-97380952D01*
X172285714Y-97333333D01*
X172523809Y-97333333D01*
X172619047Y-97380952D01*
X172666666Y-97428571D01*
X172714285Y-97523809D01*
X172714285Y-97761904D01*
X172666666Y-97857142D01*
X172619047Y-97904761D01*
X172523809Y-97952380D01*
X172285714Y-97952380D01*
X172190476Y-97904761D01*
X172142857Y-97857142D01*
X76354666Y-92670571D02*
X76497523Y-92718190D01*
X76545142Y-92765809D01*
X76592761Y-92861047D01*
X76592761Y-93003904D01*
X76545142Y-93099142D01*
X76497523Y-93146761D01*
X76402285Y-93194380D01*
X76021333Y-93194380D01*
X76021333Y-92194380D01*
X76354666Y-92194380D01*
X76449904Y-92242000D01*
X76497523Y-92289619D01*
X76545142Y-92384857D01*
X76545142Y-92480095D01*
X76497523Y-92575333D01*
X76449904Y-92622952D01*
X76354666Y-92670571D01*
X76021333Y-92670571D01*
X77449904Y-92527714D02*
X77449904Y-93194380D01*
X77021333Y-92527714D02*
X77021333Y-93051523D01*
X77068952Y-93146761D01*
X77164190Y-93194380D01*
X77307047Y-93194380D01*
X77402285Y-93146761D01*
X77449904Y-93099142D01*
X77783238Y-92527714D02*
X78164190Y-92527714D01*
X77926095Y-92194380D02*
X77926095Y-93051523D01*
X77973714Y-93146761D01*
X78068952Y-93194380D01*
X78164190Y-93194380D01*
X78354666Y-92527714D02*
X78735619Y-92527714D01*
X78497523Y-92194380D02*
X78497523Y-93051523D01*
X78545142Y-93146761D01*
X78640380Y-93194380D01*
X78735619Y-93194380D01*
X79211809Y-93194380D02*
X79116571Y-93146761D01*
X79068952Y-93099142D01*
X79021333Y-93003904D01*
X79021333Y-92718190D01*
X79068952Y-92622952D01*
X79116571Y-92575333D01*
X79211809Y-92527714D01*
X79354666Y-92527714D01*
X79449904Y-92575333D01*
X79497523Y-92622952D01*
X79545142Y-92718190D01*
X79545142Y-93003904D01*
X79497523Y-93099142D01*
X79449904Y-93146761D01*
X79354666Y-93194380D01*
X79211809Y-93194380D01*
X79973714Y-92527714D02*
X79973714Y-93194380D01*
X79973714Y-92622952D02*
X80021333Y-92575333D01*
X80116571Y-92527714D01*
X80259428Y-92527714D01*
X80354666Y-92575333D01*
X80402285Y-92670571D01*
X80402285Y-93194380D01*
X81307047Y-92527714D02*
X81307047Y-93194380D01*
X81068952Y-92146761D02*
X80830857Y-92861047D01*
X81449904Y-92861047D01*
X87784666Y-104862571D02*
X87927523Y-104910190D01*
X87975142Y-104957809D01*
X88022761Y-105053047D01*
X88022761Y-105195904D01*
X87975142Y-105291142D01*
X87927523Y-105338761D01*
X87832285Y-105386380D01*
X87451333Y-105386380D01*
X87451333Y-104386380D01*
X87784666Y-104386380D01*
X87879904Y-104434000D01*
X87927523Y-104481619D01*
X87975142Y-104576857D01*
X87975142Y-104672095D01*
X87927523Y-104767333D01*
X87879904Y-104814952D01*
X87784666Y-104862571D01*
X87451333Y-104862571D01*
X88879904Y-104719714D02*
X88879904Y-105386380D01*
X88451333Y-104719714D02*
X88451333Y-105243523D01*
X88498952Y-105338761D01*
X88594190Y-105386380D01*
X88737047Y-105386380D01*
X88832285Y-105338761D01*
X88879904Y-105291142D01*
X89213238Y-104719714D02*
X89594190Y-104719714D01*
X89356095Y-104386380D02*
X89356095Y-105243523D01*
X89403714Y-105338761D01*
X89498952Y-105386380D01*
X89594190Y-105386380D01*
X89784666Y-104719714D02*
X90165619Y-104719714D01*
X89927523Y-104386380D02*
X89927523Y-105243523D01*
X89975142Y-105338761D01*
X90070380Y-105386380D01*
X90165619Y-105386380D01*
X90641809Y-105386380D02*
X90546571Y-105338761D01*
X90498952Y-105291142D01*
X90451333Y-105195904D01*
X90451333Y-104910190D01*
X90498952Y-104814952D01*
X90546571Y-104767333D01*
X90641809Y-104719714D01*
X90784666Y-104719714D01*
X90879904Y-104767333D01*
X90927523Y-104814952D01*
X90975142Y-104910190D01*
X90975142Y-105195904D01*
X90927523Y-105291142D01*
X90879904Y-105338761D01*
X90784666Y-105386380D01*
X90641809Y-105386380D01*
X91403714Y-104719714D02*
X91403714Y-105386380D01*
X91403714Y-104814952D02*
X91451333Y-104767333D01*
X91546571Y-104719714D01*
X91689428Y-104719714D01*
X91784666Y-104767333D01*
X91832285Y-104862571D01*
X91832285Y-105386380D01*
X92213238Y-104386380D02*
X92832285Y-104386380D01*
X92498952Y-104767333D01*
X92641809Y-104767333D01*
X92737047Y-104814952D01*
X92784666Y-104862571D01*
X92832285Y-104957809D01*
X92832285Y-105195904D01*
X92784666Y-105291142D01*
X92737047Y-105338761D01*
X92641809Y-105386380D01*
X92356095Y-105386380D01*
X92260857Y-105338761D01*
X92213238Y-105291142D01*
X99722666Y-92670571D02*
X99865523Y-92718190D01*
X99913142Y-92765809D01*
X99960761Y-92861047D01*
X99960761Y-93003904D01*
X99913142Y-93099142D01*
X99865523Y-93146761D01*
X99770285Y-93194380D01*
X99389333Y-93194380D01*
X99389333Y-92194380D01*
X99722666Y-92194380D01*
X99817904Y-92242000D01*
X99865523Y-92289619D01*
X99913142Y-92384857D01*
X99913142Y-92480095D01*
X99865523Y-92575333D01*
X99817904Y-92622952D01*
X99722666Y-92670571D01*
X99389333Y-92670571D01*
X100817904Y-92527714D02*
X100817904Y-93194380D01*
X100389333Y-92527714D02*
X100389333Y-93051523D01*
X100436952Y-93146761D01*
X100532190Y-93194380D01*
X100675047Y-93194380D01*
X100770285Y-93146761D01*
X100817904Y-93099142D01*
X101151238Y-92527714D02*
X101532190Y-92527714D01*
X101294095Y-92194380D02*
X101294095Y-93051523D01*
X101341714Y-93146761D01*
X101436952Y-93194380D01*
X101532190Y-93194380D01*
X101722666Y-92527714D02*
X102103619Y-92527714D01*
X101865523Y-92194380D02*
X101865523Y-93051523D01*
X101913142Y-93146761D01*
X102008380Y-93194380D01*
X102103619Y-93194380D01*
X102579809Y-93194380D02*
X102484571Y-93146761D01*
X102436952Y-93099142D01*
X102389333Y-93003904D01*
X102389333Y-92718190D01*
X102436952Y-92622952D01*
X102484571Y-92575333D01*
X102579809Y-92527714D01*
X102722666Y-92527714D01*
X102817904Y-92575333D01*
X102865523Y-92622952D01*
X102913142Y-92718190D01*
X102913142Y-93003904D01*
X102865523Y-93099142D01*
X102817904Y-93146761D01*
X102722666Y-93194380D01*
X102579809Y-93194380D01*
X103341714Y-92527714D02*
X103341714Y-93194380D01*
X103341714Y-92622952D02*
X103389333Y-92575333D01*
X103484571Y-92527714D01*
X103627428Y-92527714D01*
X103722666Y-92575333D01*
X103770285Y-92670571D01*
X103770285Y-93194380D01*
X104198857Y-92289619D02*
X104246476Y-92242000D01*
X104341714Y-92194380D01*
X104579809Y-92194380D01*
X104675047Y-92242000D01*
X104722666Y-92289619D01*
X104770285Y-92384857D01*
X104770285Y-92480095D01*
X104722666Y-92622952D01*
X104151238Y-93194380D01*
X104770285Y-93194380D01*
X87888666Y-80732571D02*
X88031523Y-80780190D01*
X88079142Y-80827809D01*
X88126761Y-80923047D01*
X88126761Y-81065904D01*
X88079142Y-81161142D01*
X88031523Y-81208761D01*
X87936285Y-81256380D01*
X87555333Y-81256380D01*
X87555333Y-80256380D01*
X87888666Y-80256380D01*
X87983904Y-80304000D01*
X88031523Y-80351619D01*
X88079142Y-80446857D01*
X88079142Y-80542095D01*
X88031523Y-80637333D01*
X87983904Y-80684952D01*
X87888666Y-80732571D01*
X87555333Y-80732571D01*
X88983904Y-80589714D02*
X88983904Y-81256380D01*
X88555333Y-80589714D02*
X88555333Y-81113523D01*
X88602952Y-81208761D01*
X88698190Y-81256380D01*
X88841047Y-81256380D01*
X88936285Y-81208761D01*
X88983904Y-81161142D01*
X89317238Y-80589714D02*
X89698190Y-80589714D01*
X89460095Y-80256380D02*
X89460095Y-81113523D01*
X89507714Y-81208761D01*
X89602952Y-81256380D01*
X89698190Y-81256380D01*
X89888666Y-80589714D02*
X90269619Y-80589714D01*
X90031523Y-80256380D02*
X90031523Y-81113523D01*
X90079142Y-81208761D01*
X90174380Y-81256380D01*
X90269619Y-81256380D01*
X90745809Y-81256380D02*
X90650571Y-81208761D01*
X90602952Y-81161142D01*
X90555333Y-81065904D01*
X90555333Y-80780190D01*
X90602952Y-80684952D01*
X90650571Y-80637333D01*
X90745809Y-80589714D01*
X90888666Y-80589714D01*
X90983904Y-80637333D01*
X91031523Y-80684952D01*
X91079142Y-80780190D01*
X91079142Y-81065904D01*
X91031523Y-81161142D01*
X90983904Y-81208761D01*
X90888666Y-81256380D01*
X90745809Y-81256380D01*
X91507714Y-80589714D02*
X91507714Y-81256380D01*
X91507714Y-80684952D02*
X91555333Y-80637333D01*
X91650571Y-80589714D01*
X91793428Y-80589714D01*
X91888666Y-80637333D01*
X91936285Y-80732571D01*
X91936285Y-81256380D01*
X92936285Y-81256380D02*
X92364857Y-81256380D01*
X92650571Y-81256380D02*
X92650571Y-80256380D01*
X92555333Y-80399238D01*
X92460095Y-80494476D01*
X92364857Y-80542095D01*
X151074380Y-111926666D02*
X150598190Y-112260000D01*
X151074380Y-112498095D02*
X150074380Y-112498095D01*
X150074380Y-112117142D01*
X150122000Y-112021904D01*
X150169619Y-111974285D01*
X150264857Y-111926666D01*
X150407714Y-111926666D01*
X150502952Y-111974285D01*
X150550571Y-112021904D01*
X150598190Y-112117142D01*
X150598190Y-112498095D01*
X150074380Y-111593333D02*
X150074380Y-110926666D01*
X151074380Y-111355238D01*
X145994380Y-103290666D02*
X145518190Y-103624000D01*
X145994380Y-103862095D02*
X144994380Y-103862095D01*
X144994380Y-103481142D01*
X145042000Y-103385904D01*
X145089619Y-103338285D01*
X145184857Y-103290666D01*
X145327714Y-103290666D01*
X145422952Y-103338285D01*
X145470571Y-103385904D01*
X145518190Y-103481142D01*
X145518190Y-103862095D01*
X144994380Y-102385904D02*
X144994380Y-102862095D01*
X145470571Y-102909714D01*
X145422952Y-102862095D01*
X145375333Y-102766857D01*
X145375333Y-102528761D01*
X145422952Y-102433523D01*
X145470571Y-102385904D01*
X145565809Y-102338285D01*
X145803904Y-102338285D01*
X145899142Y-102385904D01*
X145946761Y-102433523D01*
X145994380Y-102528761D01*
X145994380Y-102766857D01*
X145946761Y-102862095D01*
X145899142Y-102909714D01*
X143200380Y-98972666D02*
X142724190Y-99306000D01*
X143200380Y-99544095D02*
X142200380Y-99544095D01*
X142200380Y-99163142D01*
X142248000Y-99067904D01*
X142295619Y-99020285D01*
X142390857Y-98972666D01*
X142533714Y-98972666D01*
X142628952Y-99020285D01*
X142676571Y-99067904D01*
X142724190Y-99163142D01*
X142724190Y-99544095D01*
X142533714Y-98115523D02*
X143200380Y-98115523D01*
X142152761Y-98353619D02*
X142867047Y-98591714D01*
X142867047Y-97972666D01*
X140406380Y-94654666D02*
X139930190Y-94988000D01*
X140406380Y-95226095D02*
X139406380Y-95226095D01*
X139406380Y-94845142D01*
X139454000Y-94749904D01*
X139501619Y-94702285D01*
X139596857Y-94654666D01*
X139739714Y-94654666D01*
X139834952Y-94702285D01*
X139882571Y-94749904D01*
X139930190Y-94845142D01*
X139930190Y-95226095D01*
X139406380Y-94321333D02*
X139406380Y-93702285D01*
X139787333Y-94035619D01*
X139787333Y-93892761D01*
X139834952Y-93797523D01*
X139882571Y-93749904D01*
X139977809Y-93702285D01*
X140215904Y-93702285D01*
X140311142Y-93749904D01*
X140358761Y-93797523D01*
X140406380Y-93892761D01*
X140406380Y-94178476D01*
X140358761Y-94273714D01*
X140311142Y-94321333D01*
X137612380Y-90336666D02*
X137136190Y-90670000D01*
X137612380Y-90908095D02*
X136612380Y-90908095D01*
X136612380Y-90527142D01*
X136660000Y-90431904D01*
X136707619Y-90384285D01*
X136802857Y-90336666D01*
X136945714Y-90336666D01*
X137040952Y-90384285D01*
X137088571Y-90431904D01*
X137136190Y-90527142D01*
X137136190Y-90908095D01*
X136707619Y-89955714D02*
X136660000Y-89908095D01*
X136612380Y-89812857D01*
X136612380Y-89574761D01*
X136660000Y-89479523D01*
X136707619Y-89431904D01*
X136802857Y-89384285D01*
X136898095Y-89384285D01*
X137040952Y-89431904D01*
X137612380Y-90003333D01*
X137612380Y-89384285D01*
X135072380Y-86018666D02*
X134596190Y-86352000D01*
X135072380Y-86590095D02*
X134072380Y-86590095D01*
X134072380Y-86209142D01*
X134120000Y-86113904D01*
X134167619Y-86066285D01*
X134262857Y-86018666D01*
X134405714Y-86018666D01*
X134500952Y-86066285D01*
X134548571Y-86113904D01*
X134596190Y-86209142D01*
X134596190Y-86590095D01*
X135072380Y-85066285D02*
X135072380Y-85637714D01*
X135072380Y-85352000D02*
X134072380Y-85352000D01*
X134215238Y-85447238D01*
X134310476Y-85542476D01*
X134358095Y-85637714D01*
X125404761Y-71452380D02*
X124928571Y-71452380D01*
X124880952Y-71928571D01*
X124928571Y-71880952D01*
X125023809Y-71833333D01*
X125261904Y-71833333D01*
X125357142Y-71880952D01*
X125404761Y-71928571D01*
X125452380Y-72023809D01*
X125452380Y-72261904D01*
X125404761Y-72357142D01*
X125357142Y-72404761D01*
X125261904Y-72452380D01*
X125023809Y-72452380D01*
X124928571Y-72404761D01*
X124880952Y-72357142D01*
X125738095Y-71452380D02*
X126071428Y-72452380D01*
X126404761Y-71452380D01*
X128023809Y-71500000D02*
X127928571Y-71452380D01*
X127785714Y-71452380D01*
X127642857Y-71500000D01*
X127547619Y-71595238D01*
X127500000Y-71690476D01*
X127452380Y-71880952D01*
X127452380Y-72023809D01*
X127500000Y-72214285D01*
X127547619Y-72309523D01*
X127642857Y-72404761D01*
X127785714Y-72452380D01*
X127880952Y-72452380D01*
X128023809Y-72404761D01*
X128071428Y-72357142D01*
X128071428Y-72023809D01*
X127880952Y-72023809D01*
X128500000Y-72452380D02*
X128500000Y-71452380D01*
X129071428Y-72452380D01*
X129071428Y-71452380D01*
X129547619Y-72452380D02*
X129547619Y-71452380D01*
X129785714Y-71452380D01*
X129928571Y-71500000D01*
X130023809Y-71595238D01*
X130071428Y-71690476D01*
X130119047Y-71880952D01*
X130119047Y-72023809D01*
X130071428Y-72214285D01*
X130023809Y-72309523D01*
X129928571Y-72404761D01*
X129785714Y-72452380D01*
X129547619Y-72452380D01*
X131642857Y-71928571D02*
X131785714Y-71976190D01*
X131833333Y-72023809D01*
X131880952Y-72119047D01*
X131880952Y-72261904D01*
X131833333Y-72357142D01*
X131785714Y-72404761D01*
X131690476Y-72452380D01*
X131309523Y-72452380D01*
X131309523Y-71452380D01*
X131642857Y-71452380D01*
X131738095Y-71500000D01*
X131785714Y-71547619D01*
X131833333Y-71642857D01*
X131833333Y-71738095D01*
X131785714Y-71833333D01*
X131738095Y-71880952D01*
X131642857Y-71928571D01*
X131309523Y-71928571D01*
X132833333Y-72452380D02*
X132261904Y-72452380D01*
X132547619Y-72452380D02*
X132547619Y-71452380D01*
X132452380Y-71595238D01*
X132357142Y-71690476D01*
X132261904Y-71738095D01*
X134357142Y-71928571D02*
X134500000Y-71976190D01*
X134547619Y-72023809D01*
X134595238Y-72119047D01*
X134595238Y-72261904D01*
X134547619Y-72357142D01*
X134500000Y-72404761D01*
X134404761Y-72452380D01*
X134023809Y-72452380D01*
X134023809Y-71452380D01*
X134357142Y-71452380D01*
X134452380Y-71500000D01*
X134500000Y-71547619D01*
X134547619Y-71642857D01*
X134547619Y-71738095D01*
X134500000Y-71833333D01*
X134452380Y-71880952D01*
X134357142Y-71928571D01*
X134023809Y-71928571D01*
X134976190Y-71547619D02*
X135023809Y-71500000D01*
X135119047Y-71452380D01*
X135357142Y-71452380D01*
X135452380Y-71500000D01*
X135500000Y-71547619D01*
X135547619Y-71642857D01*
X135547619Y-71738095D01*
X135500000Y-71880952D01*
X134928571Y-72452380D01*
X135547619Y-72452380D01*
X137071428Y-71928571D02*
X137214285Y-71976190D01*
X137261904Y-72023809D01*
X137309523Y-72119047D01*
X137309523Y-72261904D01*
X137261904Y-72357142D01*
X137214285Y-72404761D01*
X137119047Y-72452380D01*
X136738095Y-72452380D01*
X136738095Y-71452380D01*
X137071428Y-71452380D01*
X137166666Y-71500000D01*
X137214285Y-71547619D01*
X137261904Y-71642857D01*
X137261904Y-71738095D01*
X137214285Y-71833333D01*
X137166666Y-71880952D01*
X137071428Y-71928571D01*
X136738095Y-71928571D01*
X137642857Y-71452380D02*
X138261904Y-71452380D01*
X137928571Y-71833333D01*
X138071428Y-71833333D01*
X138166666Y-71880952D01*
X138214285Y-71928571D01*
X138261904Y-72023809D01*
X138261904Y-72261904D01*
X138214285Y-72357142D01*
X138166666Y-72404761D01*
X138071428Y-72452380D01*
X137785714Y-72452380D01*
X137690476Y-72404761D01*
X137642857Y-72357142D01*
X139785714Y-71928571D02*
X139928571Y-71976190D01*
X139976190Y-72023809D01*
X140023809Y-72119047D01*
X140023809Y-72261904D01*
X139976190Y-72357142D01*
X139928571Y-72404761D01*
X139833333Y-72452380D01*
X139452380Y-72452380D01*
X139452380Y-71452380D01*
X139785714Y-71452380D01*
X139880952Y-71500000D01*
X139928571Y-71547619D01*
X139976190Y-71642857D01*
X139976190Y-71738095D01*
X139928571Y-71833333D01*
X139880952Y-71880952D01*
X139785714Y-71928571D01*
X139452380Y-71928571D01*
X140880952Y-71785714D02*
X140880952Y-72452380D01*
X140642857Y-71404761D02*
X140404761Y-72119047D01*
X141023809Y-72119047D01*
X142500000Y-71928571D02*
X142642857Y-71976190D01*
X142690476Y-72023809D01*
X142738095Y-72119047D01*
X142738095Y-72261904D01*
X142690476Y-72357142D01*
X142642857Y-72404761D01*
X142547619Y-72452380D01*
X142166666Y-72452380D01*
X142166666Y-71452380D01*
X142500000Y-71452380D01*
X142595238Y-71500000D01*
X142642857Y-71547619D01*
X142690476Y-71642857D01*
X142690476Y-71738095D01*
X142642857Y-71833333D01*
X142595238Y-71880952D01*
X142500000Y-71928571D01*
X142166666Y-71928571D01*
X143642857Y-71452380D02*
X143166666Y-71452380D01*
X143119047Y-71928571D01*
X143166666Y-71880952D01*
X143261904Y-71833333D01*
X143500000Y-71833333D01*
X143595238Y-71880952D01*
X143642857Y-71928571D01*
X143690476Y-72023809D01*
X143690476Y-72261904D01*
X143642857Y-72357142D01*
X143595238Y-72404761D01*
X143500000Y-72452380D01*
X143261904Y-72452380D01*
X143166666Y-72404761D01*
X143119047Y-72357142D01*
X145214285Y-71928571D02*
X145357142Y-71976190D01*
X145404761Y-72023809D01*
X145452380Y-72119047D01*
X145452380Y-72261904D01*
X145404761Y-72357142D01*
X145357142Y-72404761D01*
X145261904Y-72452380D01*
X144880952Y-72452380D01*
X144880952Y-71452380D01*
X145214285Y-71452380D01*
X145309523Y-71500000D01*
X145357142Y-71547619D01*
X145404761Y-71642857D01*
X145404761Y-71738095D01*
X145357142Y-71833333D01*
X145309523Y-71880952D01*
X145214285Y-71928571D01*
X144880952Y-71928571D01*
X146309523Y-71452380D02*
X146119047Y-71452380D01*
X146023809Y-71500000D01*
X145976190Y-71547619D01*
X145880952Y-71690476D01*
X145833333Y-71880952D01*
X145833333Y-72261904D01*
X145880952Y-72357142D01*
X145928571Y-72404761D01*
X146023809Y-72452380D01*
X146214285Y-72452380D01*
X146309523Y-72404761D01*
X146357142Y-72357142D01*
X146404761Y-72261904D01*
X146404761Y-72023809D01*
X146357142Y-71928571D01*
X146309523Y-71880952D01*
X146214285Y-71833333D01*
X146023809Y-71833333D01*
X145928571Y-71880952D01*
X145880952Y-71928571D01*
X145833333Y-72023809D01*
X147928571Y-71928571D02*
X148071428Y-71976190D01*
X148119047Y-72023809D01*
X148166666Y-72119047D01*
X148166666Y-72261904D01*
X148119047Y-72357142D01*
X148071428Y-72404761D01*
X147976190Y-72452380D01*
X147595238Y-72452380D01*
X147595238Y-71452380D01*
X147928571Y-71452380D01*
X148023809Y-71500000D01*
X148071428Y-71547619D01*
X148119047Y-71642857D01*
X148119047Y-71738095D01*
X148071428Y-71833333D01*
X148023809Y-71880952D01*
X147928571Y-71928571D01*
X147595238Y-71928571D01*
X148500000Y-71452380D02*
X149166666Y-71452380D01*
X148738095Y-72452380D01*
M02*
