M48
INCH,TZ
T1C0.0157
T2C0.0394
T3C0.0433
T4C0.0472
T5C0.0512
%
G90
G05
T1
X48300Y-38900
X59400Y-40500
X60500Y-42300
T2
X50000Y-29500
X51000Y-29500
X52000Y-29500
X53000Y-29500
X54000Y-29500
X55000Y-29500
X56000Y-29500
X57000Y-29500
X58000Y-29500
T3
X29700Y-37300
X29700Y-39072
X32259Y-37300
X32259Y-39072
X34200Y-42100
X34200Y-43872
X34241Y-32600
X34241Y-34372
X36759Y-42100
X36759Y-43872
X36800Y-32600
X36800Y-34372
X38900Y-37300
X38900Y-39072
X41459Y-37300
X41459Y-39072
T4
X47000Y-33800
X48000Y-35500
X49100Y-37200
X50200Y-38900
X51300Y-40600
X52000Y-33800
X52200Y-42300
X53000Y-35500
X53300Y-44000
X54100Y-37200
X55200Y-38900
X56300Y-40600
X57200Y-42300
X58300Y-44000
T5
X64400Y-33500
X64400Y-35469
X69321Y-33500
X69321Y-35469
X70100Y-46400
X70100Y-48369
X75021Y-46400
X75021Y-48369
X78400Y-35600
X78400Y-37569
X83321Y-35600
X83321Y-37569
T0
M30
